<svg xmlns="http://www.w3.org/2000/svg" xmlns:xlink="http://www.w3.org/1999/xlink" version="1.2" viewBox="0 0 612 792" baseProfile="tiny-ps">  <title>SafeSoftware_col_logo</title>  <circle cx="306" cy="396" r="133.562"/>  <g id="Brandmark_00000095300221830092748640000006877984186268012479_">    <g>      <circle cx="245.47" cy="423.555" r="14.478" fill="#F55215"/>      <path d="M412.507,423.091c0-2.487-0.538-4.826-1.708-6.979c-1.169-2.153-2.654-3.861-4.752-5.123    c-2.097-1.262-4.399-1.893-7.053-1.893s-5.104,0.65-7.258,1.93c-2.153,1.299-3.842,3.044-5.049,5.272    c-1.207,2.227-1.838,4.64-1.838,7.258s0.613,5.049,1.838,7.258s2.914,3.954,5.067,5.253c2.153,1.299,4.585,1.949,7.239,1.949    c2.172,0,4.139-0.427,5.958-1.281c1.8-0.854,3.285-2.005,4.51-3.434s1.912-2.691,2.376-4.381l-6.552,0.13    c-0.334,0.557-0.854,1.225-1.374,1.633c-0.613,0.483-1.336,0.928-2.209,1.169c-0.835,0.241-1.745,0.427-2.821,0.427    c-1.429,0-2.729-0.353-3.898-1.058c-1.169-0.705-2.097-1.726-2.766-3.063c-0.445-0.872-0.742-1.838-0.891-2.914h21.105    C412.488,424.594,412.507,423.722,412.507,423.091L412.507,423.091z M391.551,420.288c0.167-0.613,0.39-1.188,0.687-1.708    c0.724-1.318,1.671-2.283,2.84-2.933c1.169-0.65,2.469-0.965,3.879-0.965c1.225,0,2.376,0.26,3.452,0.761    c1.077,0.501,1.949,1.188,2.617,2.042s1.039,1.782,1.132,2.803L391.551,420.288L391.551,420.288z" fill="#FFFFFF"/>      <path d="M349.954,438.033c-2.413,0-4.585-0.65-6.552-1.93c-1.968-1.299-3.508-3.044-4.622-5.234    s-1.671-4.64-1.671-7.295c0-2.654,0.557-5.067,1.689-7.276s2.654-3.972,4.622-5.253c1.949-1.299,4.121-1.93,6.515-1.93    c1.485,0,2.877,0.223,4.139,0.668c1.281,0.445,2.654,1.336,3.62,2.153c0.947,0.798,1.745,1.893,2.079,3.508v-5.531h6.107v27.286    h-6.107v-4.863c-0.631,1.429-1.095,2.19-2.339,3.193c-1.058,0.854-2.097,1.429-3.378,1.856    C352.794,437.81,351.42,438.033,349.954,438.033L349.954,438.033z M351.495,432.075c1.485,0,2.84-0.371,4.065-1.114    c1.225-0.742,2.19-1.763,2.896-3.081c0.705-1.299,1.058-2.747,1.058-4.325s-0.353-2.988-1.058-4.288    c-0.705-1.299-1.671-2.339-2.914-3.1c-1.225-0.761-2.58-1.132-4.046-1.132s-2.821,0.353-4.028,1.077s-2.19,1.708-2.914,3.007    c-0.724,1.281-1.077,2.766-1.077,4.455s0.353,3.211,1.077,4.51s1.689,2.283,2.914,2.97    C348.71,431.74,350.047,432.075,351.495,432.075L351.495,432.075z" fill="#FFFFFF"/>      <path d="M243.521,392.575c-2.413,0-4.585-0.65-6.552-1.93c-1.968-1.299-3.508-3.044-4.622-5.234    s-1.671-4.64-1.671-7.295c0-2.654,0.557-5.067,1.689-7.276c1.114-2.209,2.673-3.972,4.622-5.253    c1.949-1.299,4.121-1.93,6.515-1.93c1.485,0,2.877,0.223,4.139,0.668c1.281,0.445,2.673,1.336,3.62,2.153    c0.947,0.798,1.745,1.893,2.079,3.508v-5.513h6.107v27.286h-6.107v-4.863c-0.631,1.411-1.095,2.19-2.339,3.193    c-1.039,0.854-2.097,1.429-3.378,1.856C246.361,392.353,244.988,392.575,243.521,392.575L243.521,392.575z M245.062,386.617    c1.485,0,2.84-0.371,4.065-1.114s2.19-1.763,2.896-3.081c0.705-1.299,1.058-2.747,1.058-4.325s-0.353-2.988-1.058-4.288    c-0.705-1.299-1.671-2.339-2.914-3.1c-1.225-0.761-2.58-1.132-4.046-1.132s-2.821,0.353-4.028,1.077s-2.19,1.708-2.914,3.007    c-0.724,1.281-1.077,2.766-1.077,4.455s0.353,3.23,1.077,4.51c0.724,1.299,1.689,2.283,2.914,2.97    C242.259,386.283,243.614,386.617,245.062,386.617L245.062,386.617z" fill="#FFFFFF"/>      <path d="M306.687,377.633c0-2.487-0.538-4.826-1.708-6.979c-1.169-2.153-2.654-3.861-4.752-5.123    c-2.097-1.262-4.399-1.893-7.053-1.893s-5.104,0.65-7.258,1.93c-2.153,1.299-3.842,3.044-5.049,5.272    c-1.225,2.227-1.838,4.64-1.838,7.258s0.613,5.049,1.838,7.258c1.225,2.209,2.914,3.954,5.067,5.253    c2.153,1.299,4.585,1.949,7.239,1.949c2.172,0,4.139-0.427,5.958-1.281c1.8-0.854,3.285-2.005,4.51-3.434s1.912-2.691,2.376-4.381    l-6.552,0.13c-0.334,0.557-0.854,1.225-1.392,1.633c-0.613,0.483-1.336,0.928-2.209,1.188c-0.835,0.241-1.745,0.427-2.821,0.427    c-1.429,0-2.729-0.353-3.898-1.058c-1.169-0.705-2.097-1.726-2.784-3.063c-0.445-0.872-0.742-1.838-0.891-2.914h21.142    C306.668,379.155,306.687,378.264,306.687,377.633L306.687,377.633z M285.731,374.83c0.167-0.613,0.39-1.188,0.687-1.689    c0.724-1.318,1.671-2.283,2.84-2.933c1.169-0.65,2.469-0.965,3.898-0.965c1.225,0,2.376,0.26,3.452,0.761    c1.077,0.501,1.949,1.188,2.617,2.042s1.039,1.8,1.132,2.803L285.731,374.83L285.731,374.83z" fill="#FFFFFF"/>      <path d="M368.516,409.912h6.162v4.937c0.445-1.021,1.021-1.912,1.708-2.636    c0.705-0.742,1.522-1.299,2.469-1.689s2.005-0.594,3.137-0.594h2.914v5.531h-2.58c-1.466,0-2.766,0.353-3.879,1.058    s-1.986,1.745-2.599,3.1s-0.928,3.007-0.928,4.919v12.696h-6.422L368.516,409.912L368.516,409.912z" fill="#FFFFFF"/>      <path d="M273.461,353.967c-2.135,0-3.787,0.52-4.882,1.522c-1.077,1.002-1.633,2.45-1.633,4.306    l-0.037,4.659h-5.513v5.494h5.494v21.81h6.33v-21.81h5.494v-5.494h-5.494v-3.935c0-0.52,0.056-0.835,0.186-0.984    c0.186-0.223,0.65-0.26,1.058-0.26h4.251l0.037-5.309h-5.291V353.967z" fill="#FFFFFF"/>      <path d="M214.157,392.575c-3.285,0-6.033-0.557-8.241-1.652c-2.209-1.095-3.824-2.543-4.863-4.306    s-1.559-3.657-1.559-5.68h6.608c0,0.167,0.019,0.316,0.019,0.483c0.019,0.167,0.037,0.334,0.074,0.501    c0.167,0.965,0.575,1.838,1.262,2.617s1.596,1.374,2.729,1.819c1.132,0.445,2.45,0.668,3.954,0.668c1.8,0,3.304-0.204,4.492-0.594    c1.188-0.39,2.079-1.002,2.673-1.782c0.594-0.78,0.891-1.8,0.891-3.007c0-1.058-0.334-1.949-1.002-2.654s-1.596-1.281-2.784-1.726    s-2.71-0.835-4.529-1.169c-2.543-0.538-4.77-1.169-6.682-1.912c-1.893-0.742-3.508-1.856-4.826-3.323    c-1.318-1.466-1.968-3.36-1.968-5.68c0-2.023,0.483-3.805,1.466-5.346c0.965-1.541,2.469-2.766,4.492-3.657    c2.023-0.891,4.548-1.336,7.573-1.336c3.026,0,5.42,0.445,7.462,1.336s3.564,2.153,4.585,3.787s1.541,3.527,1.541,5.717h-6.608    c0-0.965-0.26-1.838-0.761-2.58c-0.501-0.761-1.281-1.355-2.339-1.782c-1.058-0.445-2.376-0.668-3.972-0.668    c-1.708,0-3.081,0.204-4.102,0.631c-1.021,0.427-1.726,0.984-2.116,1.652c-0.39,0.687-0.594,1.448-0.594,2.302    c0,0.984,0.334,1.838,1.002,2.506c0.668,0.687,1.652,1.244,2.951,1.689c1.299,0.445,3.007,0.854,5.104,1.188    c2.487,0.445,4.678,1.077,6.552,1.893s3.378,1.986,4.529,3.49c1.151,1.503,1.726,3.397,1.726,5.68s-0.594,4.269-1.8,5.921    c-1.207,1.652-2.914,2.896-5.123,3.749C219.725,392.148,217.127,392.575,214.157,392.575L214.157,392.575z" fill="#FFFFFF"/>      <path d="M214.157,438.033c-3.285,0-6.033-0.557-8.241-1.652c-2.209-1.095-3.824-2.543-4.863-4.306    s-1.559-3.657-1.559-5.68h6.608c0,0.167,0.019,0.316,0.019,0.483c0.019,0.167,0.037,0.334,0.074,0.501    c0.167,0.965,0.575,1.838,1.262,2.617c0.687,0.78,1.596,1.374,2.729,1.819c1.132,0.445,2.45,0.668,3.954,0.668    c1.8,0,3.304-0.204,4.492-0.594c1.188-0.408,2.079-1.002,2.673-1.801c0.594-0.798,0.891-1.8,0.891-3.007    c0-1.058-0.334-1.949-1.002-2.654s-1.596-1.281-2.784-1.726s-2.71-0.835-4.529-1.169c-2.543-0.538-4.77-1.169-6.682-1.912    c-1.893-0.742-3.508-1.856-4.826-3.323c-1.318-1.466-1.968-3.36-1.968-5.68c0-2.023,0.483-3.805,1.466-5.346    c0.965-1.541,2.469-2.766,4.492-3.657s4.548-1.336,7.573-1.336c3.026,0,5.42,0.445,7.462,1.336s3.564,2.153,4.585,3.787    s1.541,3.527,1.541,5.717h-6.608c0-0.965-0.26-1.838-0.761-2.58c-0.501-0.742-1.281-1.355-2.339-1.782    c-1.058-0.445-2.376-0.668-3.972-0.668c-1.708,0-3.081,0.204-4.102,0.631c-1.021,0.427-1.726,0.984-2.116,1.652    c-0.39,0.687-0.594,1.448-0.594,2.302c0,0.984,0.334,1.838,1.002,2.506c0.668,0.687,1.652,1.244,2.951,1.689    c1.299,0.445,3.007,0.835,5.104,1.188c2.487,0.445,4.678,1.077,6.552,1.893s3.378,1.986,4.529,3.49    c1.151,1.503,1.726,3.397,1.726,5.68s-0.594,4.269-1.8,5.921c-1.207,1.652-2.914,2.896-5.123,3.749    C219.725,437.606,217.127,438.033,214.157,438.033L214.157,438.033z" fill="#FFFFFF"/>      <path d="M288.997,415.406h5.476v-5.494h-5.476v-10.413l-6.422,4.009v6.404h-10.376v-3.917    c0-0.52,0.056-0.835,0.186-0.984c0.186-0.223,0.65-0.26,1.058-0.26h4.232l0.037-5.309h-5.29c-2.135,0-3.787,0.52-4.882,1.522    c-1.077,1.002-1.633,2.432-1.633,4.306l-0.037,4.64h-5.513v5.494h5.494v21.81h6.33v-21.81h10.376v11.415    c0,2.784,0.26,4.919,1.058,6.497c0.705,1.411,1.838,2.803,3.211,3.415c1.281,0.594,2.877,0.464,4.529,0.464h3.118v-5.439h-1.782    c-0.761,0-1.429-0.037-2.005-0.316c-0.575-0.278-1.039-0.761-1.411-1.466c-0.371-0.705-0.278-1.671-0.278-2.896L288.997,415.406    L288.997,415.406z" fill="#FFFFFF"/>      <path d="M296.645,409.912h6.905l5.346,17.281l0.483,1.652h0.074l0.501-1.615l5.179-17.318h4.752    l4.993,17.132l0.557,1.801h0.074l0.631-1.912l5.346-17.021h6.775l-9.207,27.286h-5.94l-5.68-17.689h-0.019l-5.773,17.708h-5.81    L296.645,409.912L296.645,409.912z" fill="#FFFFFF"/>    </g>  </g></svg>